<?xml version="1.0" encoding="utf-8"?><svg xmlns="http://www.w3.org/2000/svg" xmlns:xlink="http://www.w3.org/1999/xlink"><symbol viewBox="0 0 200.814 200.814" id="at" xmlns="http://www.w3.org/2000/svg"><path d="M100.407 0C45.043 0 .001 45.042.001 100.406c0 55.366 45.042 100.409 100.406 100.409a7.5 7.5 0 007.5-7.5 7.5 7.5 0 00-7.5-7.5c-47.093 0-85.406-38.314-85.406-85.409C15.001 53.313 53.314 15 100.407 15s85.406 38.313 85.406 85.406v23.23c0 8.672-7.056 15.727-15.729 15.727-8.672 0-15.727-7.055-15.727-15.727v-23.23c0-29.75-24.202-53.953-53.951-53.953-29.75 0-53.953 24.203-53.953 53.953 0 29.752 24.203 53.957 53.953 53.957 16.511 0 31.305-7.463 41.209-19.185 4.572 11.238 15.607 19.185 28.469 19.185 16.943 0 30.729-13.784 30.729-30.727v-23.23C200.813 45.042 155.771 0 100.407 0zm0 139.363c-21.479 0-38.953-17.476-38.953-38.957 0-21.479 17.475-38.953 38.953-38.953s38.951 17.474 38.951 38.953c0 21.481-17.473 38.957-38.951 38.957z"/></symbol><symbol viewBox="0 0 209.28 209.28" id="clock" xmlns="http://www.w3.org/2000/svg"><path d="M104.641 0C46.943 0 .002 46.94.002 104.637c0 57.701 46.941 104.643 104.639 104.643 57.697 0 104.637-46.943 104.637-104.643C209.278 46.94 162.338 0 104.641 0zm0 194.28c-49.427 0-89.639-40.214-89.639-89.643C15.002 55.211 55.214 15 104.641 15c49.426 0 89.637 40.211 89.637 89.637 0 49.429-40.211 89.643-89.637 89.643z"/><path d="M158.445 102.886h-49.174V49.134a7.5 7.5 0 00-15 0v61.252a7.5 7.5 0 007.5 7.5h56.674a7.5 7.5 0 000-15z"/></symbol><symbol viewBox="0 0 512 512" id="feature-1" xmlns="http://www.w3.org/2000/svg"><path d="M118.442 109.57q.089-.157.165-.321c5.068-10.65 16.23-28.534 34.046-28.665l158.363-1.167h.2a24.652 24.652 0 0111.843 2.976c-9.211-13.58-18.021-19.552-28.419-19.552h-.2l-158.363 1.167c-17.816.131-28.978 18.016-34.046 28.665a5.143 5.143 0 01-.165.322l-27.151 48.953 25.875-.191zM72.546 261.9a10.529 10.529 0 01-3.027-7.344 6.118 6.118 0 00-.051-.753l-9.832-75.735c.037-12.434 6.513-21.082 14.376-24.515l-9.147.068h-.043a5.826 5.826 0 01-.945-.087c-10.427.7-20.77 10.067-20.817 25.291l9.832 73.329a5.543 5.543 0 01.051.728 10.156 10.156 0 0010.106 10.033h.075l10.492-.077a10.461 10.461 0 01-1.07-.938zM291.866 215.631a7 7 0 00.936-6.33l-5.15-15.145c-3.715-10.923-15.662-19.478-27.2-19.478h-98.343c-11.573 0-23.452 8.617-27.046 19.619l-4.925 15.085a7 7 0 006.654 9.173h149.383a7 7 0 005.691-2.924zm-145.424-11.076l1.93-5.912c1.7-5.215 8.251-9.965 13.737-9.965h98.344c5.52 0 12.167 4.76 13.944 9.986l2 5.891zm6.573 26.19a7 7 0 000 14h116.138a7 7 0 000-14zm212.421 17.81h-33.388a7 7 0 00-7 7v33.386a7 7 0 007 7h7.42a7 7 0 000-14h-.42v-19.386H358.8a7 7 0 0013.637-2.232v-4.768a7 7 0 00-7.001-7zm-40.388 105.306a7 7 0 007 7h33.388a7 7 0 007-7v-33.387a7 7 0 00-7-7h-33.388a7 7 0 00-7 7zm14-26.387h19.388v19.387h-19.388zm-14 91.306a7 7 0 007 7h7.421a7 7 0 100-14h-.421v-19.386h19.39a7 7 0 0014-.171v-6.829a7 7 0 00-7-7h-33.39a7 7 0 00-7 7z"/><path d="M391.716 257.194a7 7 0 00-9.9 0L361 278.017l-6.377-6.377a7 7 0 00-9.9 9.9l11.326 11.326a7 7 0 009.9 0l25.77-25.771a7 7 0 00-.003-9.901zm-9.9 130.866L361 408.881l-6.377-6.377a7 7 0 00-9.9 9.9l11.326 11.326a7 7 0 009.9 0l25.771-25.77a7 7 0 00-9.9-9.9zM308.516 145.756a7 7 0 1014 0 39.258 39.258 0 00-78.516 0 7 7 0 0014 0 25.258 25.258 0 0150.516 0zM85.2 182.146a23.128 23.128 0 1023.128 23.128A23.153 23.153 0 0085.2 182.146zm0 32.255a9.128 9.128 0 119.128-9.127A9.137 9.137 0 0185.2 214.4zm317.752 57.847a7 7 0 007 7h44.516a7 7 0 000-14h-44.516a7 7 0 00-7 7zm51.516 57.919h-44.516a7 7 0 000 14h44.516a7 7 0 000-14zm0 64.92h-44.516a7 7 0 000 14h44.516a7 7 0 100-14z"/><path d="M373.315 109.946c-7.435 0-20.557-.046-27.222-.071l-12.217-22.52c-9-16.142-22.174-34.672-44.287-34.672h-154.9c-17.984 0-33.892 12.333-44.814 34.737l-12.736 22.564c-6.674-.013-20-.038-27.486-.038-13.4 0-24.314 6.765-27.8 17.235a59.044 59.044 0 00-2.841 14.326A7 7 0 0026 148.844h.009l15.887-.021c-7.2 6.851-11.693 17-11.693 28.514a6.973 6.973 0 00.055.879l9.085 71.764a22.6 22.6 0 0017.625 21.53v21.89a14.8 14.8 0 0014.78 14.781h23.626a14.8 14.8 0 0014.78-14.781v-21.34h190.362a7 7 0 000-14H61.9a8.57 8.57 0 01-8.56-8.561 6.974 6.974 0 00-.056-.879l-9.076-71.7c.185-13.981 9.636-22.533 19.148-23.177a6.967 6.967 0 001.034.083h293.579c.052 0 .1.008.155.008 12.586 0 20.438 11.893 20.635 23.074l-.607 4.6a7 7 0 006.022 7.856 7.083 7.083 0 00.926.062 7 7 0 006.931-6.084l.672-5.083a7.026 7.026 0 00.06-.917 38.765 38.765 0 00-12.146-28.488h16.353a7 7 0 006.99-7.338 59.162 59.162 0 00-2.841-14.325c-3.49-10.48-14.403-17.245-27.804-17.245zM70.968 272.06h25.186v21.34a.781.781 0 01-.78.781H71.748a.781.781 0 01-.78-.781zm-7.83-137.26l-28.94.037c.255-1.028.562-2.115.932-3.225 1.528-4.583 7.364-7.662 14.523-7.662 5.13 0 13 .012 19.594.023zm13.238 5.027l25.794-45.713c.072-.127.139-.256.2-.385 4.9-10.1 15.609-27.046 32.314-27.046h154.9c11.724 0 21.313 8.221 32.021 27.421l24.8 45.719zm283.27-4.966L353.7 123.9c6.579.022 14.46.044 19.612.044 7.159 0 13 3.079 14.523 7.662.371 1.114.679 2.2.935 3.239z"/><path d="M349.135 193.945h-25.246a30.407 30.407 0 00-30.373 30.373v204.626a30.407 30.407 0 0030.373 30.373h138.738A30.407 30.407 0 00493 428.944V224.318a30.407 30.407 0 00-30.373-30.373h-25.246a24.2 24.2 0 00-23.47-18.436h-41.306a24.2 24.2 0 00-23.47 18.436zm87.981 14h25.511A16.392 16.392 0 01479 224.318v204.626a16.391 16.391 0 01-16.373 16.373H323.889a16.391 16.391 0 01-16.373-16.373V224.318a16.392 16.392 0 0116.373-16.373H349.4a24.2 24.2 0 0023.205 17.447h41.306a24.2 24.2 0 0023.205-17.447zm-13.043-8.275v1.56a10.174 10.174 0 01-10.162 10.162h-41.306a10.173 10.173 0 01-10.161-10.162v-1.56a10.172 10.172 0 0110.161-10.161h41.306a10.173 10.173 0 0110.162 10.161z"/></symbol><symbol viewBox="0 0 512 512" id="feature-2" xmlns="http://www.w3.org/2000/svg"><path d="M167.782 131.282C172.7 116.815 184.521 107.1 197.2 107.1h175.149c-6.036-12.6-15.936-20-27.166-20H167.2c-12.68 0-24.5 9.719-29.419 24.186-3.49 10.273-8.467 37.794-10.76 51.047 7 .691 18.6 1.767 33.09 2.858 2.404-12.772 5.363-27.113 7.671-33.909zm116.753 51.797c40.7 0 82.655-2.727 109.747-4.913a625.49 625.49 0 00-3.216-2.394c-12.682 1.269-66.435 6.35-121.508 7.188 4.978.077 9.979.119 14.977.119zM118 262.948v-48.469c0-6.428 5.213-15.569 10.252-20.693 2.976-3.026 12.354-10.382 19.115-15.563-12.979-1.075-22.48-2.027-26.757-2.473-6.545 4.961-18.865 14.486-22.358 18.036C93.213 198.91 88 208.051 88 214.479v48.469a24.5 24.5 0 0024.475 24.475h30A24.5 24.5 0 01118 262.948zM169.221 228.984c3.658 11.2 15.751 19.969 27.529 19.969h118.084c11.743 0 23.9-8.709 27.687-19.828l5.273-15.5a7 7 0 00-6.627-9.254H170.833a7 7 0 00-6.654 9.172zm162.172-10.617l-2.126 6.25c-1.84 5.409-8.72 10.336-14.433 10.336H196.75c-5.78 0-12.426-4.821-14.221-10.315l-2.047-6.271z"/><path d="M74.936 466.017l.2-83.017h53.017a7 7 0 007-7v-20a7 7 0 00-7-7H59.846V46a7 7 0 00-7-7H28.154a7 7 0 00-7 7v420a7 7 0 007 7h39.782a7 7 0 007-6.983zM35.154 53h10.692v296H35.154zm26 322.983L60.952 459h-25.8v-96h86v6h-53a7 7 0 00-6.998 6.983zM483.846 39h-24.692a7 7 0 00-7 7v303h-68.308a7 7 0 00-7 7v20a7 7 0 007 7h53.017l.2 83.017a7 7 0 007 6.983h39.782a7 7 0 007-7V46a7 7 0 00-6.999-7zm-7 420h-25.8l-.2-83.017a7 7 0 00-7-6.983h-53v-6h86zm0-110h-10.692V53h10.692z"/><path d="M360.586 248.99H431a7 7 0 000-14h-62.486a16.861 16.861 0 012.2-5.4c5-7.231 13.184-10.89 25.008-11.186 6.369-.161 34.516 0 34.8 0a7 7 0 00.081-14c-1.167-.008-28.649-.164-35.233 0-16.377.409-28.546 6.2-36.168 17.214-5.456 7.884-5.613 19.116-5.613 20.371a7 7 0 006.997 7.001zM74 241.99a7 7 0 007 7h70.414a7 7 0 007-7c0-1.255-.157-12.487-5.613-20.371-7.622-11.013-19.791-16.805-36.167-17.214-6.587-.167-33.732-.009-34.884 0a7 7 0 00.04 14h.042c.28 0 28.079-.163 34.451 0 11.822.3 20 3.954 25.006 11.185a16.672 16.672 0 012.2 5.4H81a7 7 0 00-7 7zm130.382 26.699h103.236a7 7 0 000-14H204.382a7 7 0 000 14z"/><path d="M97.982 298.58v25.648a14.982 14.982 0 0014.966 14.965h24.573a14.982 14.982 0 0014.965-14.965v-22.805h205.28v22.805a14.982 14.982 0 0014.965 14.965h26.323a14.982 14.982 0 0014.965-14.965V298.58A38.531 38.531 0 00438 262.948v-48.469c0-9.833-5.344-21.2-14.3-30.416-4.915-5.056-18.367-15.153-24.1-19.39-1.64-10.217-7.464-45.226-12.224-58C379.667 85.962 363.5 73.1 345.183 73.1H167.2c-18.678 0-35.828 13.535-42.675 33.682-4.316 12.706-10.282 47.059-12.055 57.574-5.373 4.064-19.611 14.951-24.2 19.616C81.4 190.957 74 203.486 74 214.479v48.469a38.528 38.528 0 0023.982 35.632zm40.5 25.648a.966.966 0 01-.965.965h-24.569a.967.967 0 01-.966-.965v-22.817c.165 0 .328.012.493.012h26.011zm261.533 0a.966.966 0 01-.965.965h-26.319a.966.966 0 01-.965-.965v-22.805h27.759c.166 0 .329-.01.494-.012zM137.782 111.282C142.7 96.815 154.521 87.1 167.2 87.1h177.983c12.5 0 23.373 9.145 29.078 24.465 3.747 10.055 8.57 37.513 10.766 50.734-19.784 1.89-76.279 6.784-130.492 6.784-53.892 0-108.195-4.841-127.513-6.75 2.293-13.257 7.27-40.778 10.76-51.051zM88 214.479c0-6.428 5.213-15.569 10.252-20.693 3.493-3.55 15.813-13.075 22.358-18.036 12.936 1.35 73.658 7.329 133.925 7.329 59.984 0 122.7-5.923 136.531-7.307 6.492 4.8 18.741 14.079 22.6 18.048C420.04 200.381 424 208.3 424 214.479v48.469a24.5 24.5 0 01-24.475 24.475h-287.05A24.5 24.5 0 0188 262.948z"/></symbol><symbol viewBox="0 0 512 512" id="feature-3" xmlns="http://www.w3.org/2000/svg"><path d="M153.766 278.177a5.88 5.88 0 00.177-.344c5.43-11.411 17.389-30.573 36.478-30.713l169.679-1.251h.215A26.426 26.426 0 01373 249.057c-9.869-14.549-19.308-20.948-30.45-20.948h-.214l-169.675 1.251c-19.089.14-31.048 19.3-36.478 30.713a5.88 5.88 0 01-.177.344l-29.09 52.45 27.723-.2zm-49.174 163.214a11.281 11.281 0 01-3.243-7.869 6.573 6.573 0 00-.055-.806L90.76 351.57c.039-13.321 6.978-22.587 15.4-26.265l-9.8.072h-.045a6.185 6.185 0 01-1.013-.093c-11.172.746-22.254 10.786-22.3 27.1l10.534 78.566a6.171 6.171 0 01.055.78 10.882 10.882 0 0010.827 10.75h.082l11.242-.083a11.04 11.04 0 01-1.15-1.006z"/><path d="M120.342 357.184h-.182a24.39 24.39 0 00.173 48.78h.186a24.417 24.417 0 0024.21-24.568 24.418 24.418 0 00-24.387-24.212zm.074 34.779a10.39 10.39 0 11-.153-20.779h.078a10.39 10.39 0 01.075 20.779zm272.253-36.786h-.182a24.39 24.39 0 00.174 48.78h.186a24.39 24.39 0 00-.178-48.779zm10.388 24.313a10.39 10.39 0 01-10.313 10.466h-.079a10.39 10.39 0 01-.075-20.78h.078a10.4 10.4 0 0110.389 10.312zm-97.019 31.981h-.053l-98.5.725a7 7 0 00.051 14h.053l98.5-.725a7 7 0 00-.051-14zM256 198.883a89.446 89.446 0 10-78.373-46.26A89.59 89.59 0 00256 198.883zM256 33.9a75.515 75.515 0 11-75.489 75.49A75.575 75.575 0 01256 33.9z"/><path d="M333.114 274.041a41.831 41.831 0 00-41.474 42.091 7 7 0 007 6.948h.052a7 7 0 006.949-7.052 27.783 27.783 0 1155.565-.409 7 7 0 0014-.1 41.844 41.844 0 00-42.092-41.478zm-121.151 85.09h-.053a7 7 0 00-6.948 7.052l.118 16.025a7 7 0 007 6.948h.053a7 7 0 006.948-7.052l-.118-16.025a7 7 0 00-7-6.948zm-29.681.219h-.053a7 7 0 00-6.948 7.051l.118 16.025a7 7 0 007 6.948h.053a7 7 0 006.948-7.052l-.118-16.024a7 7 0 00-7-6.948zm148.405-1.094h-.053a7 7 0 00-6.948 7.052l.118 16.025a7 7 0 007 6.948h.052a7 7 0 006.949-7.052l-.118-16.025a7 7 0 00-7-6.948zm-89.096.656a7 7 0 00-6.948 7.052l.118 16.025a7 7 0 007 6.949h.052a7 7 0 006.949-7.052l-.118-16.026a7.006 7.006 0 00-7.053-6.948zm29.733-.219h-.053a7 7 0 00-6.948 7.052l.118 16.026a7 7 0 007 6.948h.053a7 7 0 006.948-7.052l-.118-16.025a7 7 0 00-7-6.949zm29.629-.218a7 7 0 00-6.948 7.051l.118 16.026a7 7 0 007 6.948h.053a7 7 0 006.948-7.052l-.118-16.025a6.994 6.994 0 00-7.053-6.948zM256 71.308A16.907 16.907 0 01272.888 88.2a7 7 0 0014 0A30.937 30.937 0 00263 58.117v-6.934a7 7 0 10-14 0v6.934a30.885 30.885 0 007 60.967 16.884 16.884 0 01.174 33.767c-.059 0-.115-.009-.174-.009s-.115.007-.174.009a16.9 16.9 0 01-16.714-16.879 7 7 0 00-14 0A30.936 30.936 0 00249 166.05v8.021a7 7 0 1014 0v-8.021a30.884 30.884 0 00-7-60.966 16.888 16.888 0 010-33.776z"/><path d="M459.841 295.035c-3.74-10.953-15.216-17.993-29.284-17.993h-.31c-8.089.06-22.59.116-29.681.141l-13.5-24.461c-9.72-17.131-23.864-36.76-47.24-36.76h-.308l-167.03 1.238c-19.173.142-36.057 13.461-47.562 37.515l-13.713 24.726c-7.083.038-21.761.118-29.958.179-14.209.105-25.721 7.337-29.327 18.427a63.1 63.1 0 00-2.922 15.32A7 7 0 0056 320.648h.061l18.542-.16c-8.208 7.341-13.335 18.593-13.242 31.395a6.994 6.994 0 00.063.879l10.37 77.338a23.862 23.862 0 0019.173 22.68l.177 24.041a15.389 15.389 0 0015.385 15.279h.117l25.475-.188a15.406 15.406 0 0015.275-15.5l-.173-23.562 219.614-1.618.174 23.562a15.391 15.391 0 0015.389 15.269h.117l25.475-.188a15.408 15.408 0 0015.276-15.5l-.179-24.142a23.845 23.845 0 0018.4-22.835l9.66-77.468a6.88 6.88 0 00.054-.917 41.815 41.815 0 00-10.326-27.478 37.927 37.927 0 00-3.758-3.685l18.938-.147a7 7 0 006.935-7.389 63.077 63.077 0 00-3.151-15.279zm-322.569-33.722a5.66 5.66 0 00.2-.387c5.257-11.046 16.809-29.6 35.12-29.731l167.025-1.231h.2c12.776 0 23.275 8.889 35.026 29.6l27.557 49.902-293.029 2.159zm-73.179 45.265c.3-1.322.674-2.747 1.149-4.207 1.684-5.179 8.16-8.7 16.115-8.756 5.779-.043 14.78-.1 22.067-.136L96.312 306.3zm67.925 171.33l-25.475.188h-.011a1.391 1.391 0 01-1.388-1.379l-.174-23.562 28.253-.209.173 23.563a1.39 1.39 0 01-1.378 1.399zm275.867-2.033l-25.476.188h-.009a1.391 1.391 0 01-1.387-1.379l-.174-23.562 28.253-.208.174 23.563a1.39 1.39 0 01-1.381 1.398zm29.309-127.2l-9.652 77.4a7.046 7.046 0 00-.054.918 9.827 9.827 0 01-9.706 9.85l-322.147 2.38a9.815 9.815 0 01-6.921-2.827 9.7 9.7 0 01-2.929-6.878 7.009 7.009 0 00-.062-.88l-10.362-77.277c.083-12.283 7.86-24.889 21-25.74a6.985 6.985 0 001.076.092h.051l316.532-2.332c.046 0 .091.007.138.007h.209a21.25 21.25 0 0116.03 7.427 28.172 28.172 0 016.797 17.863zm-21.814-44.66l-7.1-12.86c7.283-.029 16.3-.069 22.071-.112h.2c7.864 0 14.3 3.409 16.043 8.519.5 1.459.9 2.882 1.214 4.2z"/></symbol><symbol viewBox="0 0 512 512" id="feature-4" xmlns="http://www.w3.org/2000/svg"><path d="M230.126 214.073a8.808 8.808 0 008.328 6.019c.05-.509.082-1.022.082-1.543a15.435 15.435 0 00-.44-3.67 9.475 9.475 0 00-4.418-6.063 15.985 15.985 0 01-1.8 2l-2.163 2.02zm-150.294 2.705a8.8 8.8 0 0012.793-7.129l1.857-23.23h-20l-1.857 23.23a8.788 8.788 0 01-.8 3.017zM78.443 240.7v-.133a7 7 0 00-5.793-6.9 15.323 15.323 0 01-12.69-15.127 15.481 15.481 0 01.1-1.67c-.075-.036-.154-.062-.228-.1l-10.524-5.4a14.163 14.163 0 01-3.85-2.911 9.479 9.479 0 00-5.058 6.415 15.383 15.383 0 0012.25 18.8 7 7 0 015.793 6.9v.133a80.684 80.684 0 0090.835 80.193 80.938 80.938 0 01-70.835-80.2zM68.184 387.531l41.994-17.922a95.652 95.652 0 01-10.54-4.037l-51.454 21.959A40.086 40.086 0 0026.5 419.492v66.147h20v-66.147a40.086 40.086 0 0121.684-31.961zm155.658-201.112l-.885 12.838a2 2 0 01-.633 1.33l-1.477 1.379-2.742-8.225a125.89 125.89 0 01-2.179-7.322zm-163.404 0l-1.147 14.344-3.591-1.843a.261.261 0 01-.14-.211l-.847-12.29zm66.532 167.095v-18.776a94.205 94.205 0 01-20-4.872v23.648a82.853 82.853 0 0042.53 6.018 82.314 82.314 0 01-22.53-6.018z"/><path d="M226.5 411.764h-3v-40h-14v40h-6v-50h-14v50h-100v-48h-14v48h-6v-40h-14v40h-3a7 7 0 00-7 7v74h14v-67h160v67h14v-74a7 7 0 00-7-7z"/><path d="M359.6 185.125a15.889 15.889 0 00-15.871-15.871h-6.307V69.94l6.417-13.474a7.007 7.007 0 00.452-4.784l-8.871-33.85a7 7 0 00-6.772-5.226h-14.196a7 7 0 00-6.772 5.226l-8.871 33.85a7 7 0 00.452 4.784l6.416 13.474v99.314h-6.306a15.858 15.858 0 00-6.831 30.175l-8.29 28.833a6.993 6.993 0 00-.272 1.934v75.6a28.869 28.869 0 0028.836 28.836h17.469a28.869 28.869 0 0028.836-28.836V230.2a7.031 7.031 0 00-.272-1.934l-8.29-28.833a15.877 15.877 0 009.043-14.308zM319.854 26.606h3.389l6.853 26.15-6 12.594a6.994 6.994 0 00-.681 3.009v100.9h-3.742v-100.9A6.993 6.993 0 00319 65.35l-6-12.594zm25.265 279.185a14.853 14.853 0 01-14.836 14.836h-17.469a14.852 14.852 0 01-14.836-14.836v-74.608L306.657 201h29.783l8.679 30.187zM343.726 187h-44.355a1.871 1.871 0 110-3.742h44.355a1.871 1.871 0 010 3.742zM461.5 13.017a7 7 0 00-10.128 6.262V50.86l-20.213 13.46-20.751-14.52.1-30.535a7.009 7.009 0 00-10.123-6.3 68.258 68.258 0 00-38.1 61.465 68.95 68.95 0 0040.042 62.39v169.245a28.562 28.562 0 0057.124 0V136.824A68.629 68.629 0 00461.5 13.017zM450.009 125.6a7 7 0 00-4.551 6.557v173.908a14.562 14.562 0 01-29.124 0V132.157a7 7 0 00-4.551-6.557 54.852 54.852 0 01-35.491-51.166 54.279 54.279 0 0120.177-42.422l-.073 21.4a7 7 0 002.987 5.76l27.666 19.358a7 7 0 007.893.091l27.309-18.185a7 7 0 003.12-5.827V32.054a54.3 54.3 0 0120.129 42.38 54.852 54.852 0 01-35.491 51.166zM206.5 427.764a7 7 0 00-7 7v6a7 7 0 0014 0v-6a7 7 0 00-7-7zm-134 0a7 7 0 00-7 7v6a7 7 0 0014 0v-6a7 7 0 00-7-7z"/><path d="M266.5 492.639v-73.45c0-.194-.008-.387-.024-.581a54.165 54.165 0 00-29.58-43.689 6.623 6.623 0 00-.382-.178L186.03 353.2v-30.015a94.946 94.946 0 0047.934-77.317 29.4 29.4 0 0017.736-34.319 23.592 23.592 0 00-14.414-16.512l1.044-15.137-13.967-.962-1.4 20.319a2 2 0 01-.633 1.33l-1.477 1.379-2.742-8.225a124.372 124.372 0 01-4.224-16.293l-13.759 2.584a138.2 138.2 0 004.7 18.137l5.3 15.9a8.8 8.8 0 0014.355 3.652l7.4-6.905a15.985 15.985 0 001.8-2 9.475 9.475 0 014.418 6.063 15.383 15.383 0 01-12.213 18.792 7 7 0 00-5.78 6.892v.141a80.83 80.83 0 11-161.66 0v-.133a7 7 0 00-5.793-6.9 15.383 15.383 0 01-12.25-18.8 9.479 9.479 0 015.058-6.415 14.163 14.163 0 003.85 2.911l10.524 5.4a8.8 8.8 0 0012.793-7.129L75 179.977l-13.955-1.116-1.751 21.9-3.594-1.841a.261.261 0 01-.14-.211l-1.36-19.771-13.967.962 1.042 15.111A23.578 23.578 0 0026.8 211.547a29.4 29.4 0 0017.781 34.34 94.95 94.95 0 0048.389 77.552V353.2l-50.484 21.541a6.623 6.623 0 00-.382.178 54.165 54.165 0 00-29.58 43.689 7.054 7.054 0 00-.024.581v73.45a7 7 0 007 7h240a7 7 0 007-7zM106.97 329.866a94.8 94.8 0 0065.06-.164v23.812a82.938 82.938 0 01-65.06 0zM252.5 485.639h-226v-66.147a40.086 40.086 0 0121.684-31.961l51.454-21.959a96.888 96.888 0 0079.724 0l51.454 21.959a40.086 40.086 0 0121.684 31.961z"/><path d="M425.215 228.175h9.341a7 7 0 000-14h-9.341a7 7 0 000 14zm11.361 12.181h-11.361a7 7 0 100 14h11.361a7 7 0 000-14zm0 26.183h-11.361a7 7 0 100 14h11.361a7 7 0 000-14zM331.307 238.57a7 7 0 00-7 7v52.339a7 7 0 0014 0V245.57a7 7 0 00-7-7zm-19.516 0a7 7 0 00-7 7v52.339a7 7 0 0014 0V245.57a7 7 0 00-7-7zM249.5 147h-6.42a114.525 114.525 0 00-22-61.924 104.3 104.3 0 00-50.347-37.014l.682-6.575a7 7 0 00-6.962-7.722h-49.91a7 7 0 00-6.962 7.722l.682 6.576a104.235 104.235 0 00-50.349 37.104A114.844 114.844 0 0035.931 147H29.5a7 7 0 00-7 7v25.42a7 7 0 007 7h220a7 7 0 007-7V154a7 7 0 00-7-7zM117.624 59.864a7 7 0 005.164-7.488l-.478-4.612h34.38l-.478 4.612a7 7 0 005.164 7.488 83.367 83.367 0 0112.585 4.48v8.692a52.756 52.756 0 01-33.431 49.078 52.6 52.6 0 01-35.491-49.839v-7.924a82.93 82.93 0 0112.585-4.487zM69.173 93.487a93.058 93.058 0 0121.866-21.253v.041a66.572 66.572 0 0046.087 63.463l1.36.444a7.011 7.011 0 004.446-.036 66.756 66.756 0 0045.029-63.11v-.828a92.946 92.946 0 0121.871 21.2A100.385 100.385 0 01229.058 147H49.952a100.717 100.717 0 0119.221-53.513zM242.5 172.419h-206V161h206z"/><path d="M128.87 100.266h23.571a7 7 0 000-14H128.87a7 7 0 000 14zm0-21.731h23.571a7 7 0 000-14H128.87a7 7 0 000 14z"/></symbol><symbol viewBox="0 0 217.109 217.109" id="location" xmlns="http://www.w3.org/2000/svg"><path d="M108.552 0C62.42 0 24.89 37.535 24.89 83.672c0 32.967 13.802 66.314 39.914 96.437 19.503 22.499 38.831 35.246 39.645 35.778a7.495 7.495 0 008.208 0c.813-.532 20.144-13.279 39.647-35.777 26.114-30.124 39.917-63.471 39.917-96.438C192.22 37.535 154.686 0 108.552 0zm0 200.4C93.165 188.934 39.89 144.806 39.89 83.672 39.89 45.806 70.691 15 108.552 15c37.864 0 68.668 30.806 68.668 68.672 0 61.134-53.28 105.262-68.668 116.728z"/><path d="M108.557 50.449c-18.31 0-33.206 14.897-33.206 33.209 0 18.307 14.896 33.201 33.206 33.201 18.31 0 33.205-14.894 33.205-33.201 0-18.311-14.896-33.209-33.205-33.209zm0 51.41c-10.039 0-18.206-8.165-18.206-18.201 0-10.041 8.167-18.209 18.206-18.209 10.038 0 18.205 8.168 18.205 18.209 0 10.036-8.167 18.201-18.205 18.201z"/></symbol><symbol viewBox="0 0 241.061 241.061" id="mail" xmlns="http://www.w3.org/2000/svg"><path d="M198.602 70.402l-78.063 68.789-78.08-68.79a7.5 7.5 0 10-9.916 11.255l83.039 73.159c1.417 1.248 3.188 1.872 4.958 1.872s3.542-.624 4.959-1.873l83.022-73.159a7.502 7.502 0 00.668-10.586 7.505 7.505 0 00-10.587-.667z"/><path d="M218.561 38.529H22.5c-12.406 0-22.5 10.093-22.5 22.5v119.002c0 12.407 10.094 22.5 22.5 22.5h196.061c12.406 0 22.5-10.093 22.5-22.5V61.029c0-12.406-10.094-22.5-22.5-22.5zm7.5 141.502c0 4.135-3.364 7.5-7.5 7.5H22.5c-4.136 0-7.5-3.365-7.5-7.5V61.029c0-4.135 3.364-7.5 7.5-7.5h196.061c4.136 0 7.5 3.365 7.5 7.5v119.002z"/></symbol><symbol viewBox="0 0 211.621 211.621" id="phone-call" xmlns="http://www.w3.org/2000/svg"><path d="M180.948 27.722C163.07 9.844 139.299-.001 114.017 0a7.5 7.5 0 000 15c21.276-.001 41.279 8.284 56.324 23.329 15.046 15.045 23.331 35.049 23.33 56.326a7.5 7.5 0 0015 .001c.001-25.285-9.844-49.056-27.723-66.934z"/><path d="M150.096 94.656c0 4.142 3.358 7.5 7.501 7.499a7.5 7.5 0 007.499-7.5c-.002-28.16-22.916-51.073-51.078-51.077h-.001a7.5 7.5 0 00-.001 15c19.893.003 36.078 16.187 36.08 36.078zm-16.596 38.24c-11.432-.592-17.256 7.91-20.049 11.994a7.5 7.5 0 1012.381 8.469c3.3-4.825 4.795-5.584 6.823-5.488 6.491.763 32.056 19.497 34.616 25.355.642 1.725.618 3.416-.071 5.473-2.684 7.966-7.127 13.564-12.851 16.188-5.438 2.493-12.105 2.267-19.276-.651-26.777-10.914-50.171-26.145-69.531-45.271l-.023-.023c-19.086-19.341-34.289-42.705-45.185-69.441-2.919-7.177-3.145-13.845-.652-19.282 2.624-5.724 8.222-10.167 16.181-12.848 2.064-.692 3.752-.714 5.461-.078 5.879 2.569 24.612 28.133 25.368 34.551.108 2.104-.657 3.598-5.478 6.892a7.5 7.5 0 108.461 12.385c4.086-2.79 12.586-8.598 11.996-20.069-.65-11.982-23.958-43.713-35.095-47.808-4.953-1.846-10.163-1.878-15.491-.09-11.988 4.037-20.646 11.235-25.038 20.815-4.26 9.294-4.125 20.077.395 31.189 11.661 28.612 27.976 53.647 48.491 74.412.05.051.101.101.153.15 20.75 20.477 45.756 36.762 74.33 48.409 5.722 2.327 11.357 3.492 16.746 3.492 5.074 0 9.932-1.032 14.438-3.098 9.581-4.391 16.778-13.048 20.818-25.044 1.784-5.318 1.755-10.526-.077-15.456-4.109-11.167-35.84-34.475-47.841-35.127z"/></symbol></svg>