<?xml version="1.0" standalone="no"?>
<!DOCTYPE svg PUBLIC "-//W3C//DTD SVG 20010904//EN"
 "http://www.w3.org/TR/2001/REC-SVG-20010904/DTD/svg10.dtd">
<svg version="1.0" xmlns="http://www.w3.org/2000/svg"
 width="700.000000pt" height="700.000000pt" viewBox="0 0 700.000000 700.000000"
 preserveAspectRatio="xMidYMid meet">
<metadata>
Created by potrace 1.11, written by Peter Selinger 2001-2013
</metadata>
<g transform="translate(0.000000,700.000000) scale(0.100000,-0.100000)"
fill="#000000" stroke="none">
<path d="M4112 6493 c-138 -139 -229 -323 -248 -503 -9 -84 -9 -141 0 -217 4
-35 8 -65 8 -68 0 -2 14 -47 33 -100 86 -247 240 -408 508 -530 21 -10 43 -27
50 -39 9 -16 12 -373 13 -1531 1 -1334 -1 -1513 -14 -1537 -16 -27 -24 -32
-107 -69 -101 -44 -211 -128 -300 -230 -169 -194 -241 -506 -175 -759 43 -167
128 -310 251 -425 l54 -50 5 206 c4 161 8 210 20 224 25 30 460 315 490 321
15 4 38 0 51 -7 54 -28 468 -323 476 -338 4 -9 10 -104 13 -211 l5 -195 68 65
c116 109 199 253 244 422 26 96 23 298 -6 406 -41 155 -116 288 -225 397 -76
75 -135 117 -251 175 -67 33 -94 53 -105 75 -13 26 -15 217 -15 1537 0 1486 1
1507 20 1528 11 12 56 40 100 61 94 46 105 53 165 99 77 60 138 125 194 209
201 301 191 692 -26 986 -49 67 -143 161 -155 158 -4 -2 -8 -89 -9 -193 -1
-127 -5 -198 -13 -213 -6 -12 -116 -92 -244 -177 -189 -126 -239 -154 -267
-154 -29 0 -75 27 -267 162 -128 90 -238 173 -245 185 -8 15 -12 81 -12 210
-1 103 -4 187 -9 187 -4 0 -38 -30 -75 -67z"/>
<path d="M3650 6061 c-7 -42 -14 -85 -15 -96 -34 -225 -50 -291 -75 -316 -16
-17 -43 -29 -71 -34 -200 -32 -385 -94 -571 -190 -84 -44 -116 -45 -164 -2
-37 32 -56 49 -204 190 -119 114 -118 113 -133 95 -6 -8 -96 -88 -199 -177
-104 -89 -188 -165 -188 -168 0 -4 6 -14 14 -22 39 -43 256 -356 257 -370 3
-40 -7 -63 -74 -166 -40 -60 -77 -119 -84 -130 -46 -78 -144 -308 -158 -372
-3 -18 -20 -44 -37 -58 -25 -21 -40 -25 -101 -26 -110 -1 -391 -10 -394 -12
-1 -1 -5 -43 -8 -92 -4 -50 -8 -106 -10 -125 -2 -19 -6 -87 -10 -150 -3 -63
-8 -127 -11 -142 -4 -29 1 -33 71 -43 22 -3 81 -13 130 -21 50 -9 104 -18 120
-20 17 -2 41 -6 55 -10 14 -3 36 -8 50 -10 56 -10 85 -38 95 -94 3 -14 7 -36
10 -50 2 -14 7 -39 10 -55 17 -108 97 -332 166 -465 21 -42 39 -91 39 -108 0
-31 -34 -76 -129 -172 -14 -14 -66 -68 -114 -119 l-89 -93 20 -21 c20 -23 324
-380 328 -385 1 -2 83 56 183 128 100 72 194 136 209 141 38 13 57 5 177 -76
112 -75 324 -181 430 -215 39 -13 82 -29 97 -36 52 -27 53 -36 59 -349 1 -82
5 -157 8 -165 3 -8 17 -16 31 -17 14 0 72 -4 130 -7 58 -4 128 -9 157 -12 47
-4 52 -3 58 18 10 31 41 103 72 163 89 174 255 342 433 440 l66 36 0 145 c0
79 -3 144 -7 144 -3 0 -31 -9 -62 -19 -31 -11 -104 -30 -164 -42 -153 -32
-412 -32 -563 0 -457 97 -822 365 -1033 761 -68 127 -135 312 -152 423 -3 18
-9 57 -14 87 -17 100 -7 374 17 486 66 309 198 551 417 769 279 276 649 429
1038 429 53 0 97 1 97 3 0 2 -12 22 -27 46 -61 97 -131 269 -149 367 -22 125
-24 272 -4 378 13 72 13 79 -4 79 -9 0 -18 -24 -26 -76z"/>
<path d="M3680 5073 c-160 -18 -262 -42 -385 -90 -362 -143 -633 -428 -755
-793 -54 -161 -69 -256 -66 -435 4 -196 20 -282 89 -460 61 -158 153 -299 280
-430 132 -135 255 -216 462 -306 37 -16 149 -48 230 -64 102 -22 305 -26 420
-9 93 14 248 55 300 80 l31 14 -1 1171 0 1171 -40 20 c-22 11 -67 37 -100 58
-47 30 -79 42 -150 54 -83 15 -256 25 -315 19z"/>
</g>
</svg>
