<svg width="50" height="50" viewBox="0 0 50 50" fill="none" xmlns="http://www.w3.org/2000/svg">
<path d="M27.5853 13.773C26.1811 13.6741 24.7728 13.8955 23.4667 14.4204C22.1605 14.9453 20.9907 15.7599 20.0453 16.803C19.1 17.846 18.4039 19.0901 18.0096 20.4414C17.6153 21.7927 17.5331 23.2159 17.7691 24.6036C18.0052 25.9914 18.5533 27.3074 19.3722 28.4523C20.1911 29.5973 21.2593 30.5413 22.4963 31.2131C23.7333 31.885 25.1067 32.2671 26.513 32.3306C27.9192 32.3942 29.3215 32.1375 30.614 31.5799L30.614 14.8497C30.1283 14.6295 29.6673 14.3585 29.2387 14.0413C28.6967 13.9025 28.1434 13.8127 27.5853 13.773Z" fill="#1C63B8"/>
<path d="M18.1433 33.6458C18.2614 33.5612 18.4034 33.5163 18.5487 33.5179C18.694 33.5194 18.835 33.5671 18.9513 33.6542C20.2415 34.6341 21.6982 35.3724 23.2513 35.8336C23.3904 35.8741 23.5132 35.9577 23.6017 36.0725C23.6903 36.1873 23.74 36.3272 23.7438 36.4721L23.8278 39.6655L26.4947 39.8522C26.8151 38.8243 27.3471 37.8749 28.0566 37.0651C28.7661 36.2553 29.6372 35.603 30.614 35.1502V33.0522C29.152 33.5895 27.59 33.7999 26.0379 33.6686C24.4859 33.5374 22.9814 33.0677 21.6303 32.2925C20.2793 31.5173 19.1145 30.4556 18.2179 29.1819C17.3213 27.9082 16.7147 26.4535 16.4407 24.9202C16.1667 23.3868 16.2319 21.8121 16.6319 20.3067C17.0319 18.8013 17.7569 17.4018 18.7559 16.2067C19.7548 15.0116 21.0035 14.0499 22.4141 13.3893C23.8247 12.7286 25.3629 12.385 26.9205 12.3827C27.154 12.3827 27.3885 12.3911 27.6236 12.4063C26.6872 11.1226 26.1812 9.57546 26.1783 7.98655C26.178 7.37445 26.2517 6.76457 26.3976 6.17014L26.1716 6.15432L25.6442 9.3053C25.6203 9.44827 25.5515 9.57994 25.4479 9.68128C25.3442 9.78262 25.211 9.84838 25.0676 9.86907C23.4668 10.1002 21.923 10.6273 20.5152 11.4236C20.3874 11.4965 20.2395 11.5262 20.0935 11.5083C19.9475 11.4905 19.8111 11.426 19.7047 11.3244L17.4027 9.1302L14.4837 11.6678L16.3367 14.2521C16.4214 14.3702 16.4662 14.5122 16.4647 14.6575C16.4631 14.8028 16.4153 14.9439 16.3282 15.0602C15.3484 16.3502 14.6101 17.807 14.1491 19.36C14.1087 19.4991 14.0251 19.6217 13.9105 19.7102C13.7959 19.7988 13.6561 19.8486 13.5113 19.8526L10.3626 19.9391L10.0916 23.8137L13.2426 24.341C13.3855 24.365 13.5172 24.4338 13.6185 24.5374C13.7198 24.6411 13.7856 24.7743 13.8062 24.9178C14.0372 26.5186 14.5642 28.0624 15.3601 29.4703C15.433 29.5981 15.4628 29.746 15.4449 29.892C15.4271 30.038 15.3626 30.1744 15.2611 30.2809L13.0639 32.5856L15.5616 35.4957L18.1433 33.6458Z" fill="#1C63B8"/>
<path d="M37.45 3.09219V5.78662C37.4481 5.89993 37.4184 6.01104 37.3636 6.11023C37.3088 6.20941 37.2305 6.29365 37.1355 6.35556L34.1004 8.37354C33.9853 8.4498 33.8499 8.48973 33.7118 8.48814C33.5737 8.48656 33.4393 8.44353 33.326 8.36465L30.2554 6.2168C30.1649 6.15358 30.0911 6.06941 30.0403 5.97147C29.9894 5.87354 29.963 5.76474 29.9634 5.65439L29.972 3.0873C29.0647 3.7739 28.3674 4.70057 27.9591 5.7626C27.9511 5.78678 27.9417 5.81048 27.931 5.83359C27.3638 7.3625 27.4252 9.05379 28.1017 10.5376C28.7782 12.0213 30.0148 13.1768 31.5409 13.7513C31.671 13.8002 31.7829 13.8879 31.8616 14.0024C31.9404 14.1169 31.9822 14.2527 31.9814 14.3917L31.9814 35.6081C31.9821 35.7471 31.9403 35.8829 31.8616 35.9974C31.7829 36.1119 31.671 36.1995 31.5409 36.2485C30.5098 36.632 29.6001 37.2844 28.9064 38.1382C28.2126 38.992 27.7601 40.0159 27.5957 41.1037C27.4314 42.1914 27.5612 43.3033 27.9718 44.324C28.3824 45.3446 29.0587 46.2367 29.9305 46.9076V44.2132C29.9339 44.0993 29.965 43.988 30.0212 43.8888C30.0773 43.7897 30.1568 43.7057 30.2527 43.6442L33.292 41.6263C33.4072 41.55 33.5427 41.5101 33.6809 41.5117C33.8191 41.5132 33.9536 41.5563 34.0671 41.6352L37.1394 43.783C37.2299 43.8462 37.3039 43.9303 37.3549 44.0283C37.4059 44.1262 37.4325 44.2351 37.4323 44.3455L37.4241 46.9126C38.1808 46.3401 38.794 45.5995 39.2151 44.7492C39.6362 43.8989 39.8537 42.9623 39.8504 42.0135C39.8461 40.7601 39.461 39.5377 38.7461 38.5081C38.0313 37.4786 37.0205 36.6906 35.8477 36.2485C35.7167 36.2 35.6037 36.1127 35.5236 35.9983C35.4435 35.8838 35.4002 35.7478 35.3994 35.6081V14.3917C35.4002 14.252 35.4436 14.1159 35.5237 14.0015C35.6038 13.8871 35.7168 13.7998 35.8478 13.7513C37.0215 13.3096 38.0334 12.522 38.7496 11.4925C39.4658 10.4631 39.8525 9.24038 39.8584 7.98633C39.8526 7.04164 39.6329 6.11053 39.2158 5.2629C38.7987 4.41527 38.195 3.67313 37.45 3.09219Z" fill="#1C63B8"/>
</svg>
