<svg width="113" height="20" viewBox="0 0 113 20" fill="none" xmlns="http://www.w3.org/2000/svg">
<path d="M3.608 0.991999H0.176V5.48C0.176 9.032 2.048 11.384 6.128 11.384C7.352 11.384 8.552 11.168 9.584 10.856V17H12.992V0.991999H9.584V7.856C8.744 8.192 7.688 8.384 6.536 8.384C4.688 8.384 3.608 7.568 3.608 5.48V0.991999ZM19.0259 17L23.9459 9.728V17H26.9939V5.408H23.9219L19.1459 12.416V5.408H16.0979V17H19.0259ZM40.9158 17V5.408H30.0198V17H33.0678V8.072H37.8678V17H40.9158ZM53.0103 17L57.9303 9.728V17H60.9783V5.408H57.9063L53.1303 12.416V5.408H50.0823V17H53.0103ZM69.2568 19.952H72.6648V17H82.6488V19.952H86.0568V14H84.6168V0.991999H73.2408L72.3048 9.176C71.8008 13.4 70.8888 14.048 69.2568 14.264V19.952ZM75.6888 9.416L76.3128 3.992H81.1848V14H73.7448C74.7528 13.064 75.4488 11.576 75.6888 9.416ZM90.9088 17L95.8288 9.728V17H98.8768V5.408H95.8048L91.0288 12.416V5.408H87.9808V17H90.9088ZM112.799 17V5.408H101.903V17H104.951V8.072H109.751V17H112.799Z" fill="#333333"/>
</svg>
